<svg width="611" height="194" viewBox="0 0 611 194" fill="none" xmlns="http://www.w3.org/2000/svg">
<path d="M300.32 50C279.4 50 264.32 63 264.32 82.5C264.32 100.415 264.32 161.17 264.32 180.035C264.32 182.244 266.111 184 268.32 184C271.076 184 274.021 184 276.689 184C278.898 184 280.688 182.231 280.688 180.021C280.688 161.136 280.688 91.1276 280.688 86C280.688 68 291.02 64.08 300.32 64.08C317.82 64.08 324.872 80.1297 324.872 94C324.872 102.683 324.366 108.603 319.32 114C314.158 119.397 305.454 123.216 297.24 123.216C295.319 123.216 293.286 123.093 291.247 122.847C288.702 122.541 286.32 124.444 286.32 127.007C286.32 129.578 286.32 131.32 286.32 133.653C286.32 135.581 287.694 137.249 289.606 137.498C292.183 137.833 294.75 138 297.24 138C310.616 138 321.294 134.069 329.272 126.208C337.251 118.347 341.24 108.197 341.24 95.76C341.24 71.1413 329.32 50 300.32 50Z" fill="black"/>
<path d="M570.76 29.92C570.76 26.2266 570.76 24.3798 571.887 23.2163C571.916 23.1863 571.946 23.1566 571.976 23.1275C573.14 22 574.986 22 578.68 22V22C582.373 22 584.22 22 585.383 23.1275C585.413 23.1566 585.443 23.1863 585.472 23.2163C586.6 24.3798 586.6 26.2266 586.6 29.92V45.52C586.6 48.3484 586.6 49.7626 587.478 50.6413C588.357 51.52 589.771 51.52 592.6 51.52H602.968C606.151 51.52 607.743 51.52 608.831 52.3748C609.082 52.5718 609.308 52.7979 609.505 53.0486C610.36 54.1364 610.36 55.7283 610.36 58.912V58.912C610.36 62.0957 610.36 63.6876 609.505 64.7754C609.308 65.026 609.082 65.2522 608.831 65.4491C607.743 66.304 606.151 66.304 602.968 66.304H592.6C589.771 66.304 588.357 66.304 587.478 67.1827C586.6 68.0614 586.6 69.4756 586.6 72.304V102.56C586.6 106.667 587.245 110.069 588.536 112.768C589.944 115.467 591.938 117.403 594.52 118.576C597.101 119.632 599.506 120.336 601.736 120.688C602.135 120.748 602.55 120.803 602.98 120.852C606.384 121.246 608.086 121.443 609.034 122.295C609.271 122.508 609.437 122.695 609.622 122.955C610.36 123.995 610.36 125.532 610.36 128.608V128.608C610.36 131.829 610.36 133.439 609.418 134.556C609.212 134.8 608.94 135.05 608.681 135.235C607.491 136.083 605.985 135.96 602.974 135.714C593.165 134.913 585.654 132.427 580.44 128.256C573.986 123.093 570.76 114.528 570.76 102.56V66.304V29.92Z" fill="black"/>
<path d="M549.919 128.256C549.919 131.779 549.919 133.54 548.886 134.683C548.797 134.782 548.702 134.877 548.602 134.967C547.46 136 545.698 136 542.175 136V136C538.653 136 536.891 136 535.749 134.967C535.649 134.877 535.554 134.782 535.464 134.683C534.431 133.54 534.431 131.779 534.431 128.256L534.431 59.2641C534.431 55.7412 534.431 53.9798 535.464 52.8373C535.554 52.7379 535.649 52.643 535.749 52.5531C536.891 51.5201 538.653 51.5201 542.175 51.5201V51.5201C545.698 51.5201 547.46 51.5201 548.602 52.5531C548.702 52.643 548.796 52.7379 548.886 52.8373C549.919 53.9798 549.919 55.7412 549.919 59.2641V128.256ZM534.727 36.9201C533.202 34.9254 532.439 32.7547 532.439 30.4081C532.439 28.0614 533.202 25.9494 534.727 24.0721C536.253 22.0774 538.599 21.0801 541.767 21.0801C544.935 21.0801 547.282 22.0774 548.807 24.0721C550.333 25.9494 551.095 28.0614 551.095 30.4081C551.095 32.7547 550.333 34.9254 548.807 36.9201C547.282 38.7974 544.935 39.7361 541.767 39.7361C538.599 39.7361 536.253 38.7974 534.727 36.9201Z" fill="black"/>
<path d="M395.662 49.9599C415.609 50.7812 425.582 59.0532 425.582 74.7759C425.582 94.3706 412.734 104.168 387.038 104.168H380.822C378.613 104.168 376.822 102.377 376.822 100.168V94.6159C376.822 92.4068 378.613 90.6159 380.822 90.6159H388.27C396.131 90.6159 401.587 89.4426 404.638 87.0959C407.689 84.6319 409.214 80.5839 409.214 74.9519C409.214 71.3146 407.865 68.6159 405.166 66.8559C402.467 64.9786 399.006 64.0399 394.782 64.0399C386.451 64.0399 379.881 66.9732 375.07 72.8399C370.377 78.7066 368.03 85.7466 368.03 93.9599C368.03 102.643 370.553 109.683 375.598 115.08C380.761 120.477 387.449 123.176 395.662 123.176C401.607 123.176 406.679 122 410.878 119.647C412.625 118.669 414.855 118.767 416.282 120.171L421.159 124.966C422.861 126.639 422.735 129.436 420.743 130.75C413.455 135.557 405.095 137.96 395.662 137.96C382.286 137.96 371.609 134.029 363.63 126.168C355.651 118.307 351.662 108.157 351.662 95.7199C351.662 81.8746 355.593 70.6692 363.454 62.1039C371.315 53.5386 382.051 49.4906 395.662 49.9599Z" fill="black"/>
<path d="M245.488 51.7197C247.697 51.7197 249.488 53.5106 249.488 55.7197V62.5037C249.488 64.7129 247.697 66.5037 245.488 66.5037H218.336C214.933 66.5037 212 67.1491 209.536 68.4397C207.072 69.7304 205.84 71.5491 205.84 73.8957C205.84 75.3037 206.133 76.5944 206.72 77.7677C207.307 78.8237 207.952 79.7037 208.656 80.4077C209.477 81.1117 210.651 81.8744 212.176 82.6957C213.819 83.3997 215.051 83.9277 215.872 84.2797C216.811 84.5144 220.565 85.6877 227.136 87.7997C233.707 89.9117 238.576 91.6717 241.744 93.0797C244.912 94.4877 247.317 96.4237 248.96 98.8877C250.72 101.234 251.835 103.581 252.304 105.928C252.773 108.157 253.008 110.386 253.008 112.616C253.008 128.338 242.213 136.2 220.624 136.2H194.176C191.967 136.2 190.176 134.409 190.176 132.2V125.416C190.176 123.207 191.967 121.416 194.176 121.416H220.624C231.653 121.416 237.168 118.482 237.168 112.616C237.168 109.8 235.525 107.453 232.24 105.576C229.072 103.698 225.141 102.114 220.448 100.824C215.872 99.5331 211.237 98.0664 206.544 96.4237C201.968 94.6637 198.037 91.9064 194.752 88.1517C191.584 84.2797 190 79.5277 190 73.8957C190 66.7384 192.757 61.2824 198.272 57.5277C203.787 53.6557 210.475 51.7197 218.336 51.7197H245.488Z" fill="black"/>
<path d="M440.32 102.76V20.92C440.32 17.2266 440.32 15.3798 441.448 14.2163C441.477 14.1863 441.507 14.1566 441.537 14.1275C442.7 13 444.547 13 448.24 13V13C451.934 13 453.78 13 454.944 14.1275C454.974 14.1566 455.004 14.1863 455.033 14.2163C456.16 15.3798 456.16 17.2266 456.16 20.92V102.76C456.16 106.984 456.63 110.445 457.568 113.144C458.624 115.725 460.208 117.603 462.32 118.776C464.432 119.832 466.486 120.536 468.48 120.888C468.658 120.919 468.84 120.949 469.028 120.978C472.495 121.505 474.229 121.769 475.135 122.618C475.368 122.836 475.517 123.008 475.697 123.271C476.4 124.295 476.4 125.799 476.4 128.808V128.808C476.4 132.032 476.4 133.644 475.453 134.763C475.247 135.006 474.973 135.258 474.713 135.442C473.517 136.289 472.016 136.16 469.014 135.901C459.701 135.097 452.835 132.674 448.416 128.632C443.019 123.587 440.32 114.963 440.32 102.76Z" fill="black"/>
<path d="M484.32 102.76V20.92C484.32 17.2266 484.32 15.3798 485.448 14.2163C485.477 14.1863 485.507 14.1566 485.537 14.1275C486.7 13 488.547 13 492.24 13C495.934 13 497.78 13 498.944 14.1275C498.974 14.1566 499.004 14.1863 499.033 14.2163C500.16 15.3798 500.16 17.2266 500.16 20.92V102.76C500.16 106.984 500.63 110.445 501.568 113.144C502.624 115.725 504.208 117.603 506.32 118.776C508.432 119.832 510.486 120.536 512.48 120.888C512.658 120.919 512.84 120.949 513.028 120.978C516.495 121.505 518.229 121.769 519.135 122.618C519.368 122.836 519.517 123.008 519.697 123.271C520.4 124.295 520.4 125.799 520.4 128.808C520.4 132.032 520.4 133.644 519.453 134.763C519.247 135.006 518.973 135.258 518.713 135.442C517.517 136.289 516.016 136.16 513.014 135.901C503.701 135.097 496.835 132.674 492.416 128.632C487.019 123.587 484.32 114.963 484.32 102.76Z" fill="black"/>
<path d="M83.2432 5.43255C83.2432 3.79317 83.2432 2.97348 83.5549 2.34416C83.8464 1.75563 84.323 1.27904 84.9115 0.987515C85.5409 0.675781 86.3605 0.675781 87.9999 0.675781C89.6393 0.675781 90.459 0.675781 91.0883 0.987515C91.6768 1.27904 92.1534 1.75563 92.4449 2.34416C92.7567 2.97348 92.7567 3.79317 92.7567 5.43254V188.568C92.7567 190.207 92.7567 191.027 92.4449 191.656C92.1534 192.245 91.6768 192.721 91.0883 193.013C90.459 193.324 89.6393 193.324 87.9999 193.324C86.3605 193.324 85.5409 193.324 84.9115 193.013C84.323 192.721 83.8464 192.245 83.5549 191.656C83.2432 191.027 83.2432 190.207 83.2432 188.568V5.43255Z" fill="#B8E200"/>
<path d="M68.9727 49.4325C68.9727 47.7932 68.9727 46.9735 69.2844 46.3442C69.5759 45.7556 70.0525 45.279 70.641 44.9875C71.2704 44.6758 72.09 44.6758 73.7294 44.6758V44.6758C75.3688 44.6758 76.1885 44.6758 76.8178 44.9875C77.4063 45.279 77.8829 45.7556 78.1744 46.3442C78.4862 46.9735 78.4862 47.7932 78.4862 49.4325V144.568C78.4862 146.207 78.4862 147.027 78.1744 147.656C77.8829 148.245 77.4063 148.721 76.8178 149.013C76.1885 149.324 75.3688 149.324 73.7294 149.324V149.324C72.09 149.324 71.2704 149.324 70.641 149.013C70.0525 148.721 69.5759 148.245 69.2844 147.656C68.9727 147.027 68.9727 146.207 68.9727 144.568V49.4325Z" fill="#B8E200"/>
<path d="M107.027 49.4325C107.027 47.7932 107.027 46.9735 106.716 46.3442C106.424 45.7556 105.947 45.279 105.359 44.9875C104.73 44.6758 103.91 44.6758 102.271 44.6758V44.6758C100.631 44.6758 99.8115 44.6758 99.1822 44.9875C98.5937 45.279 98.1171 45.7556 97.8256 46.3442C97.5138 46.9735 97.5138 47.7932 97.5138 49.4325V144.568C97.5138 146.207 97.5138 147.027 97.8256 147.656C98.1171 148.245 98.5937 148.721 99.1822 149.013C99.8115 149.324 100.631 149.324 102.271 149.324V149.324C103.91 149.324 104.73 149.324 105.359 149.013C105.947 148.721 106.424 148.245 106.716 147.656C107.027 147.027 107.027 146.207 107.027 144.568V49.4325Z" fill="#B8E200"/>
<path d="M54.7031 74.4057C54.7031 72.7663 54.7031 71.9466 55.0149 71.3173C55.3064 70.7288 55.783 70.2522 56.3715 69.9607C57.0008 69.6489 57.8205 69.6489 59.4599 69.6489V69.6489C61.0993 69.6489 61.9189 69.6489 62.5483 69.9607C63.1368 70.2522 63.6134 70.7288 63.9049 71.3173C64.2166 71.9466 64.2166 72.7663 64.2166 74.4057V119.595C64.2166 121.234 64.2166 122.054 63.9049 122.683C63.6134 123.272 63.1368 123.748 62.5483 124.04C61.9189 124.352 61.0993 124.352 59.4599 124.352V124.352C57.8205 124.352 57.0008 124.352 56.3715 124.04C55.783 123.748 55.3064 123.272 55.0149 122.683C54.7031 122.054 54.7031 121.234 54.7031 119.595V74.4057Z" fill="#B8E200"/>
<path d="M121.297 74.4057C121.297 72.7663 121.297 71.9466 120.985 71.3173C120.694 70.7288 120.217 70.2522 119.628 69.9607C118.999 69.6489 118.179 69.6489 116.54 69.6489V69.6489C114.901 69.6489 114.081 69.6489 113.452 69.9607C112.863 70.2522 112.387 70.7288 112.095 71.3173C111.783 71.9466 111.783 72.7663 111.783 74.4057V119.595C111.783 121.234 111.783 122.054 112.095 122.683C112.387 123.272 112.863 123.748 113.452 124.04C114.081 124.352 114.901 124.352 116.54 124.352V124.352C118.179 124.352 118.999 124.352 119.628 124.04C120.217 123.748 120.694 123.272 120.985 122.683C121.297 122.054 121.297 121.234 121.297 119.595V74.4057Z" fill="#B8E200"/>
<path d="M40.4326 88.6757C40.4326 87.0363 40.4326 86.2166 40.7444 85.5873C41.0359 84.9988 41.5125 84.5222 42.101 84.2307C42.7303 83.9189 43.55 83.9189 45.1894 83.9189V83.9189C46.8287 83.9189 47.6484 83.9189 48.2778 84.2307C48.8663 84.5222 49.3429 84.9988 49.6344 85.5873C49.9461 86.2166 49.9461 87.0363 49.9461 88.6757V105.324C49.9461 106.964 49.9461 107.783 49.6344 108.413C49.3429 109.001 48.8663 109.478 48.2778 109.769C47.6484 110.081 46.8287 110.081 45.1894 110.081V110.081C43.55 110.081 42.7303 110.081 42.101 109.769C41.5125 109.478 41.0359 109.001 40.7444 108.413C40.4326 107.783 40.4326 106.964 40.4326 105.324V88.6757Z" fill="#B8E200"/>
<path d="M135.567 88.6757C135.567 87.0363 135.567 86.2166 135.256 85.5873C134.964 84.9988 134.488 84.5222 133.899 84.2307C133.27 83.9189 132.45 83.9189 130.811 83.9189V83.9189C129.171 83.9189 128.352 83.9189 127.722 84.2307C127.134 84.5222 126.657 84.9988 126.366 85.5873C126.054 86.2166 126.054 87.0363 126.054 88.6757V105.324C126.054 106.964 126.054 107.783 126.366 108.413C126.657 109.001 127.134 109.478 127.722 109.769C128.352 110.081 129.171 110.081 130.811 110.081V110.081C132.45 110.081 133.27 110.081 133.899 109.769C134.488 109.478 134.964 109.001 135.256 108.413C135.567 107.783 135.567 106.964 135.567 105.324V88.6757Z" fill="#B8E200"/>
<path d="M26.1621 94.622C26.1621 92.9826 26.1621 92.1629 26.4738 91.5336C26.7654 90.9451 27.242 90.4685 27.8305 90.177C28.4598 89.8652 29.2795 89.8652 30.9189 89.8652V89.8652C32.5582 89.8652 33.3779 89.8652 34.0072 90.177C34.5958 90.4685 35.0724 90.9451 35.3639 91.5336C35.6756 92.1629 35.6756 92.9826 35.6756 94.622V99.3787C35.6756 101.018 35.6756 101.838 35.3639 102.467C35.0724 103.056 34.5958 103.532 34.0072 103.824C33.3779 104.136 32.5582 104.136 30.9189 104.136V104.136C29.2795 104.136 28.4598 104.136 27.8305 103.824C27.242 103.532 26.7654 103.056 26.4738 102.467C26.1621 101.838 26.1621 101.018 26.1621 99.3787V94.622Z" fill="#B8E200"/>
<path d="M149.838 94.622C149.838 92.9826 149.838 92.1629 149.526 91.5336C149.235 90.9451 148.758 90.4685 148.17 90.177C147.54 89.8652 146.721 89.8652 145.081 89.8652V89.8652C143.442 89.8652 142.622 89.8652 141.993 90.177C141.404 90.4685 140.928 90.9451 140.636 91.5336C140.324 92.1629 140.324 92.9826 140.324 94.622V99.3787C140.324 101.018 140.324 101.838 140.636 102.467C140.928 103.056 141.404 103.532 141.993 103.824C142.622 104.136 143.442 104.136 145.081 104.136V104.136C146.721 104.136 147.54 104.136 148.17 103.824C148.758 103.532 149.235 103.056 149.526 102.467C149.838 101.838 149.838 101.018 149.838 99.3787V94.622Z" fill="#B8E200"/>
<path d="M11.8916 97.0002C11.8916 96.4729 11.8916 96.2093 11.9247 95.9885C12.1198 94.6845 13.1435 93.6609 14.4475 93.4657C14.6683 93.4326 14.9319 93.4326 15.4592 93.4326H17.8376C18.3648 93.4326 18.6284 93.4326 18.8492 93.4657C20.1532 93.6609 21.1769 94.6845 21.3721 95.9885C21.4051 96.2093 21.4051 96.4729 21.4051 97.0002V97.0002C21.4051 97.5274 21.4051 97.791 21.3721 98.0119C21.1769 99.3158 20.1532 100.34 18.8492 100.535C18.6284 100.568 18.3648 100.568 17.8375 100.568H15.4592C14.9319 100.568 14.6683 100.568 14.4475 100.535C13.1435 100.34 12.1198 99.3158 11.9247 98.0119C11.8916 97.791 11.8916 97.5274 11.8916 97.0002V97.0002Z" fill="#B8E200"/>
<path d="M164.108 97.0002C164.108 96.4729 164.108 96.2093 164.075 95.9885C163.88 94.6845 162.856 93.6609 161.553 93.4657C161.332 93.4326 161.068 93.4326 160.541 93.4326H158.162C157.635 93.4326 157.372 93.4326 157.151 93.4657C155.847 93.6609 154.823 94.6845 154.628 95.9885C154.595 96.2093 154.595 96.4729 154.595 97.0002V97.0002C154.595 97.5274 154.595 97.791 154.628 98.0119C154.823 99.3158 155.847 100.34 157.151 100.535C157.372 100.568 157.635 100.568 158.162 100.568H160.541C161.068 100.568 161.332 100.568 161.553 100.535C162.856 100.34 163.88 99.3158 164.075 98.0119C164.108 97.791 164.108 97.5274 164.108 97.0002V97.0002Z" fill="#B8E200"/>
<path d="M0 97C0 95.6864 1.06484 94.6216 2.37838 94.6216H4.75676C6.0703 94.6216 7.13514 95.6864 7.13514 97V97C7.13514 98.3135 6.0703 99.3783 4.75676 99.3783H2.37838C1.06484 99.3783 0 98.3135 0 97V97Z" fill="#B8E200"/>
<path d="M176 97C176 95.6864 174.935 94.6216 173.622 94.6216H171.243C169.93 94.6216 168.865 95.6864 168.865 97V97C168.865 98.3135 169.93 99.3783 171.243 99.3783H173.622C174.935 99.3783 176 98.3135 176 97V97Z" fill="#B8E200"/>
</svg>
